<svg xmlns="http://www.w3.org/2000/svg" width="188" height="176.25" viewBox="0 0 188 176.25"><path d="M128.67,32.51,115.76,40a38.59,38.59,0,0,0-5.24-3V22h-33V36.92a38.59,38.59,0,0,0-5.24,3L59.33,32.51,42.81,61.13l12.78,7.38c-.1,1.06-.14,2.09-.14,3.09s0,2,.14,3.1L42.81,82.08,59.33,110.7l12.91-7.46a37.57,37.57,0,0,0,5.24,3v14.89h33V106.28a37.57,37.57,0,0,0,5.24-3l12.91,7.46,16.52-28.62L132.41,74.7c.1-1.07.15-2.1.15-3.1s-.05-2-.15-3.09l12.78-7.38ZM121,66.59a24.51,24.51,0,0,1,0,10l-.7,3.83,9.82,5.67-5.5,9.54-9.93-5.73-3,2.52a27.17,27.17,0,0,1-8.58,5l-3.66,1.3v11.43h-11V98.73l-3.66-1.3a27.17,27.17,0,0,1-8.58-5l-3-2.52-9.93,5.73-5.5-9.54,9.82-5.67L67,76.61a24.51,24.51,0,0,1,0-10l.7-3.82-9.82-5.68,5.5-9.54,9.93,5.73,3-2.52a27.36,27.36,0,0,1,8.58-5l3.66-1.3V33.05h11V44.47l3.66,1.3a27.36,27.36,0,0,1,8.58,5l3,2.52,9.93-5.73,5.5,9.54-9.82,5.68Z" fill="#c79aed"/><path d="M94,55.08A16.52,16.52,0,1,0,110.52,71.6,16.54,16.54,0,0,0,94,55.08Zm0,22a5.51,5.51,0,1,1,5.51-5.51A5.51,5.51,0,0,1,94,77.11Z" fill="#c79aed"/><path d="M188,93.63a38.22,38.22,0,0,0-11.88-27.28,37.62,37.62,0,0,0-7.32-28.92,39.11,39.11,0,0,0-16.93-12.68A39.15,39.15,0,0,0,139.19,7.82,37.83,37.83,0,0,0,116,0,38.21,38.21,0,0,0,94,7.05,38.21,38.21,0,0,0,72,0,37.83,37.83,0,0,0,48.81,7.82,39.15,39.15,0,0,0,36.13,24.75,39.18,39.18,0,0,0,19.2,37.43a37.6,37.6,0,0,0-7.32,28.92A38.22,38.22,0,0,0,0,93.63c0,23.84,21.81,41.85,44.7,38.06A38,38,0,0,0,94,136.16a38.42,38.42,0,0,0,17.2,6.73c1.25,4.52,4.24,8.18,8.94,10.92s10.8,4.3,16.59,5.75c12.14,3,17.86,5.13,17.86,11.18v5.51h22V159.73a38.46,38.46,0,0,0-14.21-29.87A38.65,38.65,0,0,0,188,93.63Zm-38.92,27.54h-11v11a27.57,27.57,0,0,1,27.54,27.54v5.5h-.76c-1.31-4.37-4.27-7.93-8.86-10.61-4.8-2.8-10.79-4.3-16.58-5.74-12.14-3-17.86-5.13-17.86-11.19v-5.5H116A27.45,27.45,0,0,1,97.69,125L94,121.71,90.31,125a27.1,27.1,0,0,1-39.41-2.88l-2.19-2.64-3.34.81A27.69,27.69,0,0,1,11,93.63c0-7.88,3.79-15.56,10.4-21.07a27.1,27.1,0,0,1,12.91-6.09L32.5,55.61a37,37,0,0,0-10,3.25,27.31,27.31,0,0,1,19.59-24.5l2.84-.86.85-2.83A27.24,27.24,0,0,1,90.31,18.18L94,21.5l3.69-3.32a27.24,27.24,0,0,1,44.57,12.49l.85,2.84,2.84.85a27.31,27.31,0,0,1,19.59,24.5,36.84,36.84,0,0,0-10-3.25l-1.83,10.87a26.92,26.92,0,0,1,12.91,6.09c6.61,5.5,10.4,13.18,10.4,21.06a27.75,27.75,0,0,1-27.9,27.54Z" fill="#c79aed"/></svg>