<svg xmlns="http://www.w3.org/2000/svg" width="170" height="148.09" viewBox="0 0 170 148.09"><path d="M85,57.77A28.89,28.89,0,1,0,56.11,28.89,28.92,28.92,0,0,0,85,57.77ZM85,10A18.93,18.93,0,1,1,66.07,28.89,18.95,18.95,0,0,1,85,10Z" fill="#c79aed"/><path d="M143.44,57.77a18.26,18.26,0,1,0-18.26-18.26A18.28,18.28,0,0,0,143.44,57.77Zm0-26.56a8.3,8.3,0,1,1-8.3,8.3A8.31,8.31,0,0,1,143.44,31.21Z" fill="#c79aed"/><path d="M147.45,69.06h-7.7a22.58,22.58,0,0,0-20.48,13.07A40.07,40.07,0,0,0,89.64,69.06H80.36A40.07,40.07,0,0,0,50.73,82.13,22.58,22.58,0,0,0,30.25,69.06H22.54A22.5,22.5,0,0,0,0,91.47v36.26a9.76,9.76,0,0,0,9.77,9.73H40.22A11.65,11.65,0,0,0,51.8,148.09h66.4a11.65,11.65,0,0,0,11.58-10.63h30.11A10.11,10.11,0,0,0,170,127.39V91.47a22.5,22.5,0,0,0-22.55-22.41ZM10,91.47A12.54,12.54,0,0,1,22.54,79h7.71A12.53,12.53,0,0,1,42.83,91.47v3.41c-3.35,8.72-2.65,14-2.65,32.62H10Zm109.9,45a1.66,1.66,0,0,1-1.66,1.66H51.8a1.66,1.66,0,0,1-1.66-1.66V109.25A30.25,30.25,0,0,1,80.36,79h9.28a30.25,30.25,0,0,1,30.22,30.22ZM160,127.39c0,.17,1.86.11-30.22.11,0-18.81.69-23.91-2.65-32.62V91.47A12.53,12.53,0,0,1,139.75,79h7.7A12.54,12.54,0,0,1,160,91.47Z" fill="#c79aed"/><path d="M26.56,57.77A18.26,18.26,0,1,0,8.3,39.51,18.28,18.28,0,0,0,26.56,57.77Zm0-26.56a8.3,8.3,0,1,1-8.3,8.3A8.31,8.31,0,0,1,26.56,31.21Z" fill="#c79aed"/></svg>