<svg xmlns="http://www.w3.org/2000/svg" width="183" height="180.23" viewBox="0 0 183 180.23"><path d="M178.68,84.2a16.61,16.61,0,0,0-10.23-4.29,14.62,14.62,0,0,0-11.24,4.28l-20.35,20.14a12.89,12.89,0,0,0-1.38-2,13.18,13.18,0,0,0-10.3-4.6H96.69a58.5,58.5,0,0,1-15.57-2.07c-12.94-3.58-25.3-1-35.75,7.56a52.24,52.24,0,0,0-9.3,10l-5.11-5a3.63,3.63,0,0,0-2.52-1h0a3.68,3.68,0,0,0-2.59,1.11L1,134.15a3.59,3.59,0,0,0,.11,5.1l42,40a3.6,3.6,0,0,0,5.06-.1l24.6-25.23a3.65,3.65,0,0,0-.07-5.13l-2.15-2.07,4.91-.55a76.66,76.66,0,0,1,9-.52h43.34c7,0,13-1.54,17.78-4.58l.12-.08a23.92,23.92,0,0,0,4.59-4.17l29.21-34.36c5-5.88,4.68-13.21-.78-18.25ZM45.5,171.57l-36.8-35L28.52,116l36.58,35.5ZM174,97.79l-29.21,34.36A16.63,16.63,0,0,1,141.6,135c-3.57,2.26-8.22,3.41-13.84,3.41H84.42a86.13,86.13,0,0,0-9.78.56l-10.78,1.21L41.3,118.32a44.76,44.76,0,0,1,8.63-9.49c8.68-7.09,18.53-9.18,29.27-6.2A65.84,65.84,0,0,0,96.69,105h28.49c5.11,0,6.48,4.43,6.48,7a7.8,7.8,0,0,1-1.69,5,6.1,6.1,0,0,1-4.91,2.06H100.27a3.6,3.6,0,1,0,0,7.2h24.79a13.34,13.34,0,0,0,10.4-4.6,14.83,14.83,0,0,0,3.39-9.17L162.29,89.3c3.34-3.35,8.58-2.51,11.51.19,1.51,1.4,3.54,4.33.17,8.3Z" fill="#c79aed"/><path d="M89,121.7a3.6,3.6,0,0,0-7,1.64l0,.15a3.61,3.61,0,0,0,3.51,2.78,3.29,3.29,0,0,0,.82-.1,3.6,3.6,0,0,0,2.69-4.32Z" fill="#c79aed"/><path d="M24.33,76H59.41a8.72,8.72,0,0,0,5.12-1.66A8.67,8.67,0,0,0,69.64,76h35.08a8.72,8.72,0,0,0,5.12-1.66A8.67,8.67,0,0,0,115,76H150a8.72,8.72,0,0,0,8.71-8.71V50.88A18.88,18.88,0,0,0,148.48,34a20.77,20.77,0,1,0-32,0,18.78,18.78,0,0,0-6.66,5.72A18.81,18.81,0,0,0,103.17,34a20.77,20.77,0,1,0-32,0,18.78,18.78,0,0,0-6.66,5.72A18.81,18.81,0,0,0,57.86,34a20.76,20.76,0,1,0-32,0A18.88,18.88,0,0,0,15.62,50.88V67.24A8.72,8.72,0,0,0,24.33,76ZM132.49,7.2a13.57,13.57,0,1,1-13.56,13.57A13.58,13.58,0,0,1,132.49,7.2Zm-9.35,32.1a20.72,20.72,0,0,0,18.7,0,11.69,11.69,0,0,1,9.71,11.58V67.24A1.52,1.52,0,0,1,150,68.75H115a1.52,1.52,0,0,1-1.51-1.51V50.88A11.68,11.68,0,0,1,123.14,39.3Zm-36-32.1A13.57,13.57,0,1,1,73.62,20.77,13.58,13.58,0,0,1,87.18,7.2ZM77.83,39.3a20.72,20.72,0,0,0,18.7,0,11.69,11.69,0,0,1,9.71,11.58V67.24a1.52,1.52,0,0,1-1.52,1.51H69.64a1.52,1.52,0,0,1-1.51-1.51V50.88A11.69,11.69,0,0,1,77.83,39.3Zm-36-32.1A13.57,13.57,0,1,1,28.31,20.77,13.58,13.58,0,0,1,41.87,7.2Zm-19,43.68a11.69,11.69,0,0,1,9.7-11.58,20.72,20.72,0,0,0,18.7,0,11.69,11.69,0,0,1,9.71,11.58V67.24a1.52,1.52,0,0,1-1.52,1.51H24.33a1.52,1.52,0,0,1-1.51-1.51Z" fill="#c79aed"/></svg>