<svg xmlns="http://www.w3.org/2000/svg" width="174" height="177.61" viewBox="0 0 174 177.61"><path d="M75.82,89.15a25.26,25.26,0,1,1,25.26-25.26A25.29,25.29,0,0,1,75.82,89.15Zm0-41.05A15.79,15.79,0,1,0,91.6,63.89,15.8,15.8,0,0,0,75.82,48.1Z" fill="#c79aed"/><path d="M121.63,152.35a4.76,4.76,0,0,1-4.74-4.74V131.83A20.55,20.55,0,0,0,96.37,111.3H55.29a20.55,20.55,0,0,0-20.52,20.53v15.78a4.74,4.74,0,0,1-9.48,0V131.83a30,30,0,0,1,30-30H96.37a30,30,0,0,1,30,30v15.78A4.75,4.75,0,0,1,121.63,152.35Z" fill="#c79aed"/><path d="M4.74,67.06A4.76,4.76,0,0,1,0,62.32v-19A17.39,17.39,0,0,1,17.38,26h19a4.74,4.74,0,0,1,0,9.48h-19a7.92,7.92,0,0,0-7.9,7.9v19A4.76,4.76,0,0,1,4.74,67.06Z" fill="#c79aed"/><path d="M36.34,177.61h-19A17.39,17.39,0,0,1,0,160.23v-19a4.74,4.74,0,0,1,9.48,0v19a7.92,7.92,0,0,0,7.9,7.9h19a4.74,4.74,0,0,1,0,9.48Z" fill="#c79aed"/><path d="M134.25,177.61h-19a4.74,4.74,0,0,1,0-9.48h19a7.92,7.92,0,0,0,7.9-7.9v-19a4.74,4.74,0,0,1,9.48,0v19A17.39,17.39,0,0,1,134.25,177.61Z" fill="#c79aed"/><path d="M138.07.87c.56-1.16,1.51-1.16,2.1,0l9,18.3a5.08,5.08,0,0,0,3.41,2.46l20.2,2.93c1.3.18,1.57,1.09.65,2L158.83,40.79a5,5,0,0,0-1.3,4L161,64.89c.21,1.28-.53,1.84-1.69,1.25l-18.06-9.51a5.23,5.23,0,0,0-4.21,0l-18.06,9.51c-1.16.59-1.93.06-1.69-1.25l3.43-20.1a5.08,5.08,0,0,0-1.3-4L104.81,26.54c-1-.92-.65-1.8.65-2l20.2-2.93a5.11,5.11,0,0,0,3.4-2.46Z" fill="#c79aed"/></svg>