<svg xmlns="http://www.w3.org/2000/svg" width="172" height="172" viewBox="0 0 172 172"><path d="M97.47,31.53H20.07v5.74h77.4Z" fill="#c79aed"/><path d="M97.47,43H28.67v5.73h68.8Z" fill="#c79aed"/><path d="M54.47,54.47H20.07V60.2h34.4Z" fill="#c79aed"/><path d="M97.47,54.47H60.2V60.2H97.47Z" fill="#c79aed"/><path d="M37.27,65.93H20.07v5.74h17.2Z" fill="#c79aed"/><path d="M97.47,65.93H43v5.74H97.47Z" fill="#c79aed"/><path d="M169.13,31.53h-51.6V2.87A2.86,2.86,0,0,0,114.67,0H2.87A2.86,2.86,0,0,0,0,2.87v77.4a2.86,2.86,0,0,0,2.87,2.86h25.8V137.6a2.87,2.87,0,0,0,2.86,2.87H86V154.8H65.93a2.86,2.86,0,0,0-2.86,2.87v11.46A2.86,2.86,0,0,0,65.93,172h68.8a2.86,2.86,0,0,0,2.87-2.87V157.67a2.86,2.86,0,0,0-2.87-2.87H114.67V140.47h54.46A2.87,2.87,0,0,0,172,137.6V34.4A2.87,2.87,0,0,0,169.13,31.53ZM5.73,5.73H111.8V20.07H40.13V14.33a2.86,2.86,0,0,0-2.86-2.86H5.73Zm0,71.67V17.2H34.4v5.73a2.86,2.86,0,0,0,2.87,2.87H111.8V77.4Zm126.14,83.13v5.74H68.8v-5.74H88.87a2.86,2.86,0,0,0,2.86-2.86v-17.2h17.2v17.2a2.87,2.87,0,0,0,2.87,2.86Zm34.4-48.73h-5.74v5.73h5.74v17.2H34.4v-17.2h80.27V111.8H34.4V83.13h80.27a2.86,2.86,0,0,0,2.86-2.86v-43h48.74Z" fill="#c79aed"/><path d="M156.83,109.77l-9.44-9.44L154,93.76a2.87,2.87,0,0,0-2-4.89H123.27a2.86,2.86,0,0,0-2.87,2.86V120.4a2.87,2.87,0,0,0,4.89,2l6.58-6.58,9.44,9.44a2.86,2.86,0,0,0,4.05,0l11.47-11.46A2.87,2.87,0,0,0,156.83,109.77Zm-13.5,9.44-9.44-9.44a2.86,2.86,0,0,0-4,0l-3.71,3.71V94.6H145l-3.7,3.71a2.86,2.86,0,0,0,0,4l9.44,9.44Z" fill="#c79aed"/><path d="M60.2,88.87H54.47v17.2H60.2Z" fill="#c79aed"/><path d="M94.6,88.87H65.93V94.6H94.6Z" fill="#c79aed"/><path d="M114.67,88.87H100.33V94.6h14.34Z" fill="#c79aed"/><path d="M83.13,100.33H65.93v5.74h17.2Z" fill="#c79aed"/><path d="M114.67,100.33H88.87v5.74h25.8Z" fill="#c79aed"/><path d="M103.2,123.27H97.47V129h5.73Z" fill="#c79aed"/></svg>