<svg xmlns="http://www.w3.org/2000/svg" width="185.79" height="173.4" viewBox="0 0 185.79 173.4"><path d="M117.67,0H68.12A3.09,3.09,0,0,0,65,3.1V21.67a3.09,3.09,0,0,0,3.09,3.1h49.55a3.09,3.09,0,0,0,3.09-3.1V3.1A3.09,3.09,0,0,0,117.67,0Zm-3.1,18.58H71.22V6.19h43.35Z" fill="#c79aed"/><path d="M182.69,68.12H161V55.74a3.09,3.09,0,0,0-3.09-3.1H96V43.35H89.8v9.29H27.87a3.1,3.1,0,0,0-3.1,3.1V68.12H3.1A3.1,3.1,0,0,0,0,71.22V89.8a3.09,3.09,0,0,0,3.1,3.09H52.64a3.09,3.09,0,0,0,3.1-3.09V71.22a3.1,3.1,0,0,0-3.1-3.1H31V58.83H89.8v9.29H68.12A3.09,3.09,0,0,0,65,71.22V89.8a3.09,3.09,0,0,0,3.09,3.09h49.54a3.09,3.09,0,0,0,3.1-3.09V71.22a3.1,3.1,0,0,0-3.1-3.1H96V58.83h58.83v9.29H133.15a3.1,3.1,0,0,0-3.1,3.1V89.8a3.09,3.09,0,0,0,3.1,3.09h49.54a3.09,3.09,0,0,0,3.1-3.09V71.22A3.1,3.1,0,0,0,182.69,68.12ZM49.54,74.31V86.7H6.19V74.31Zm65,0V86.7H71.22V74.31Zm65,12.39H136.24V74.31h43.35Z" fill="#c79aed"/><path d="M74.31,31H68.12v6.2h6.19Z" fill="#c79aed"/><path d="M117.67,31H80.51v6.2h37.16Z" fill="#c79aed"/><path d="M9.29,99.09H3.1v6.19H9.29Z" fill="#c79aed"/><path d="M52.64,99.09H15.48v6.19H52.64Z" fill="#c79aed"/><path d="M74.31,99.09H68.12v6.19h6.19Z" fill="#c79aed"/><path d="M117.67,99.09H80.51v6.19h37.16Z" fill="#c79aed"/><path d="M139.34,99.09h-6.19v6.19h6.19Z" fill="#c79aed"/><path d="M182.69,99.09H145.53v6.19h37.16Z" fill="#c79aed"/><path d="M182.69,136.24H161V123.86a3.09,3.09,0,0,0-3.09-3.1H96v-9.29H89.8v9.29H27.87a3.1,3.1,0,0,0-3.1,3.1v12.38H3.1a3.1,3.1,0,0,0-3.1,3.1v18.58A3.09,3.09,0,0,0,3.1,161H52.64a3.09,3.09,0,0,0,3.1-3.09V139.34a3.1,3.1,0,0,0-3.1-3.1H31V127H89.8v9.29H68.12a3.09,3.09,0,0,0-3.09,3.1v18.58A3.09,3.09,0,0,0,68.12,161h49.54a3.09,3.09,0,0,0,3.1-3.09V139.34a3.1,3.1,0,0,0-3.1-3.1H96V127h58.83v9.29H133.15a3.1,3.1,0,0,0-3.1,3.1v18.58a3.09,3.09,0,0,0,3.1,3.09h49.54a3.09,3.09,0,0,0,3.1-3.09V139.34A3.1,3.1,0,0,0,182.69,136.24Zm-133.15,6.2v12.38H6.19V142.44Zm65,0v12.38H71.22V142.44Zm65,12.38H136.24V142.44h43.35Z" fill="#c79aed"/><path d="M9.29,167.21H3.1v6.19H9.29Z" fill="#c79aed"/><path d="M52.64,167.21H15.48v6.19H52.64Z" fill="#c79aed"/><path d="M74.31,167.21H68.12v6.19h6.19Z" fill="#c79aed"/><path d="M117.67,167.21H80.51v6.19h37.16Z" fill="#c79aed"/><path d="M139.34,167.21h-6.19v6.19h6.19Z" fill="#c79aed"/><path d="M182.69,167.21H145.53v6.19h37.16Z" fill="#c79aed"/></svg>