<svg xmlns="http://www.w3.org/2000/svg" width="188" height="170.25" viewBox="0 0 188 170.25"><path d="M188,14.45V8.81A8.83,8.83,0,0,0,179.16,0H8.81A8.82,8.82,0,0,0,0,8.81v5.88c0,.08,0,.15,0,.23v152.4A2.94,2.94,0,0,0,3,170.25h182.1a2.93,2.93,0,0,0,2.94-2.93V14.69C188,14.6,188,14.53,188,14.45ZM11.84,11.75a2.94,2.94,0,0,0,0-5.88h8.78a2.94,2.94,0,1,0,3,2.94,2.92,2.92,0,0,0-3-2.94h8.78a2.94,2.94,0,1,0,3,2.94,2.93,2.93,0,0,0-3-2.94h149.7a2.94,2.94,0,0,1,2.94,2.94v2.94H5.87V8.81A2.94,2.94,0,0,1,8.81,5.87h3a2.94,2.94,0,0,0,0,5.88ZM182.13,164.38H5.9V17.62H182.13Z" fill="#c79aed"/><path d="M55.86,143.87H17.7a2.94,2.94,0,0,0,0,5.88H55.86a2.94,2.94,0,1,0,0-5.88Z" fill="#c79aed"/><path d="M170.41,143.87H132.24a2.94,2.94,0,0,0,0,5.88h38.17a2.94,2.94,0,0,0,0-5.88Z" fill="#c79aed"/><path d="M113.1,143.87H74.93a2.94,2.94,0,0,0,0,5.88H113.1a2.94,2.94,0,0,0,0-5.88Z" fill="#c79aed"/><path d="M104.34,152.68H83.69a2.94,2.94,0,0,0,0,5.88h20.65a2.94,2.94,0,1,0,0-5.88Z" fill="#c79aed"/><path d="M161.61,152.68H141a2.94,2.94,0,1,0,0,5.88h20.57a2.94,2.94,0,0,0,0-5.88Z" fill="#c79aed"/><path d="M47.06,152.68H26.51a2.94,2.94,0,0,0,0,5.88H47.06a2.94,2.94,0,0,0,0-5.88Z" fill="#c79aed"/><path d="M14.76,111.55h158.6a2.94,2.94,0,0,0,2.94-2.94V26.48a2.93,2.93,0,0,0-2.94-2.94H14.76a2.93,2.93,0,0,0-2.94,2.94v82.13A2.94,2.94,0,0,0,14.76,111.55Zm2.93-82.13H170.42v76.25H17.69Z" fill="#c79aed"/><path d="M158.64,52.88H97a2.94,2.94,0,0,0,0,5.88h61.68a2.94,2.94,0,1,0,0-5.88Z" fill="#c79aed"/><path d="M158.64,44.07H97a2.94,2.94,0,0,0,0,5.87h61.68a2.94,2.94,0,1,0,0-5.87Z" fill="#c79aed"/><path d="M158.64,61.72H97a2.94,2.94,0,0,0,0,5.87h61.68a2.94,2.94,0,1,0,0-5.87Z" fill="#c79aed"/><path d="M123.39,70.55H97a2.94,2.94,0,0,0,0,5.88h26.43a2.94,2.94,0,1,0,0-5.88Z" fill="#c79aed"/><path d="M111.63,85.21H97a2.94,2.94,0,0,0,0,5.88h14.66a2.94,2.94,0,0,0,0-5.88Z" fill="#c79aed"/><path d="M126.3,85.21a2.94,2.94,0,0,0-2.94-2.93h-3a1.73,1.73,0,0,0-.32,0l-.26,0a2.14,2.14,0,0,0-.27.09,1.45,1.45,0,0,0-.29.11.32.32,0,0,0-.09,0l-.15.1-.26.16-.22.18-.2.19a2.23,2.23,0,0,0-.19.24l-.15.21a2.29,2.29,0,0,0-.14.27,1.63,1.63,0,0,0-.11.23,2.8,2.8,0,0,0-.09.31l-.06.24a2,2,0,0,0,0,.35c0,.05,0,.09,0,.14s0,.06,0,.08a2.09,2.09,0,0,0,0,.35c0,.08,0,.16,0,.25a2.58,2.58,0,0,0,.08.26,2.08,2.08,0,0,0,.12.3s0,.06,0,.08l1,2.09A2.93,2.93,0,0,0,120.42,94h3A2.56,2.56,0,0,0,124,94l.13,0a2.6,2.6,0,0,0,.49-.18l.06,0,.1-.06.33-.21.16-.14a3,3,0,0,0,.26-.24l.14-.17a3,3,0,0,0,.2-.29c0-.06.07-.12.1-.19a2.92,2.92,0,0,0,.14-.31,2,2,0,0,0,.07-.23,2.82,2.82,0,0,0,.07-.31l0-.28c0-.06,0-.13,0-.19s0-.07,0-.1l0-.29c0-.1,0-.2-.05-.3s0-.15-.07-.23-.08-.22-.13-.33l0-.07-1-2.08A2.94,2.94,0,0,0,126.3,85.21Z" fill="#c79aed"/><path d="M47.06,127.72A10.28,10.28,0,1,0,36.78,138,10.3,10.3,0,0,0,47.06,127.72Zm-14.68,0a4.41,4.41,0,1,1,4.4,4.41A4.41,4.41,0,0,1,32.38,127.72Z" fill="#c79aed"/><path d="M104.34,127.72A10.28,10.28,0,1,0,94.06,138,10.3,10.3,0,0,0,104.34,127.72Zm-14.69,0a4.41,4.41,0,1,1,4.41,4.41A4.42,4.42,0,0,1,89.65,127.72Z" fill="#c79aed"/><path d="M161.62,127.72A10.28,10.28,0,1,0,151.34,138,10.3,10.3,0,0,0,161.62,127.72Zm-14.69,0a4.41,4.41,0,1,1,4.41,4.41A4.42,4.42,0,0,1,146.93,127.72Z" fill="#c79aed"/><path d="M85.19,82.19a2.93,2.93,0,0,0-2.94,2.93H81.08L58.4,42.61s0-.06,0-.09l0-.05-.14-.21-.09-.14A.52.52,0,0,0,58,42a1.07,1.07,0,0,0-.18-.19l-.12-.12a.41.41,0,0,1-.11-.07l-.24-.16a1.48,1.48,0,0,0-.13-.08l-.12,0c-.09-.05-.18-.08-.27-.12l-.14,0-.14,0-.26,0-.16,0h-.58l-.16,0-.26,0-.14,0a.84.84,0,0,0-.14.06,2.18,2.18,0,0,0-.27.11l-.12,0a.91.91,0,0,0-.13.08l-.24.16-.11.08-.11.1-.2.2-.1.11s0,.08-.08.11l-.16.24a.91.91,0,0,0-.08.13L30.55,85.13H29.37a2.94,2.94,0,0,0-5.87,0v2.95h0A2.93,2.93,0,0,0,26.43,91H85.18a2.93,2.93,0,0,0,2.94-2.93V85.12A2.93,2.93,0,0,0,85.19,82.19ZM74.42,85.13H58.75V55.74ZM52.87,55.75V85.13H37.21Z" fill="#c79aed"/></svg>