<svg xmlns="http://www.w3.org/2000/svg" width="174" height="174" viewBox="0 0 174 174"><path d="M158.18,0H15.82A15.84,15.84,0,0,0,0,15.82V158.18A15.84,15.84,0,0,0,15.82,174H158.18A15.84,15.84,0,0,0,174,158.18V15.82A15.84,15.84,0,0,0,158.18,0Zm7.91,158.18a7.92,7.92,0,0,1-7.91,7.91H15.82a7.91,7.91,0,0,1-7.91-7.91V39.55H166.09Zm0-126.54H7.91V15.82a7.91,7.91,0,0,1,7.91-7.91H158.18a7.92,7.92,0,0,1,7.91,7.91V31.64Z" fill="#c79aed"/><path d="M19.77,23.73a4,4,0,1,0-3.95-4A4,4,0,0,0,19.77,23.73Z" fill="#c79aed"/><path d="M35.59,23.73a4,4,0,1,0-4-4A4,4,0,0,0,35.59,23.73Z" fill="#c79aed"/><path d="M51.41,23.73a4,4,0,1,0-4-4A4,4,0,0,0,51.41,23.73Z" fill="#c79aed"/><path d="M130.5,102.82h15.82a4,4,0,0,0,0-7.91H130.5a4,4,0,1,0,0,7.91Z" fill="#c79aed"/><path d="M130.5,79.09a4,4,0,0,0,2.8-1.16l11.86-11.86a4,4,0,1,0-5.59-5.59L127.71,72.34a4,4,0,0,0,2.79,6.75Z" fill="#c79aed"/><path d="M139.57,137.25a4,4,0,0,0,5.59-5.59L133.3,119.79a4,4,0,1,0-5.59,5.6Z" fill="#c79aed"/><path d="M35.59,110.73a4,4,0,0,0,3.65-2.44l12.34,4.32a18.43,18.43,0,0,0-.17,2.07,19.8,19.8,0,0,0,19.77,19.78,19.58,19.58,0,0,0,16.61-9.18l22.94,8v5.1a4,4,0,0,0,7.91,0V59.32a4,4,0,1,0-7.91,0v5.1l-71.49,25A4,4,0,0,0,31.64,91v15.82A4,4,0,0,0,35.59,110.73Zm35.59,15.81a11.84,11.84,0,0,1-11.8-11.2L80,122.54A11.7,11.7,0,0,1,71.18,126.54ZM39.55,97.72,110.73,72.8v52.13L39.55,100V97.72Z" fill="#c79aed"/></svg>