<svg width="21" height="37" viewBox="0 0 21 37" fill="none" xmlns="http://www.w3.org/2000/svg">
<path fill-rule="evenodd" clip-rule="evenodd" d="M18.2001 36.2626C18.4912 36.5418 18.8788 36.6976 19.2821 36.6976C19.6854 36.6976 20.0731 36.5418 20.3641 36.2626C20.5061 36.1239 20.6188 35.9582 20.6958 35.7753C20.7728 35.5924 20.8125 35.3959 20.8125 35.1975C20.8125 34.9991 20.7728 34.8026 20.6958 34.6197C20.6188 34.4369 20.5061 34.2713 20.3641 34.1326L4.08313 18.0725L20.3641 2.57251C20.5061 2.43382 20.6188 2.26822 20.6958 2.08533C20.7728 1.90243 20.8125 1.70601 20.8125 1.50757C20.8125 1.30913 20.7728 1.1127 20.6958 0.929808C20.6188 0.746916 20.5061 0.581187 20.3641 0.442503C20.0754 0.158879 19.6868 -1.72107e-06 19.2821 -1.68568e-06C18.8774 -1.6503e-06 18.4889 0.158879 18.2001 0.442503L0.00012365 18.0725L18.2001 36.2626Z" fill="#F2F0F0"/>
</svg>
