<svg width="21" height="37" viewBox="0 0 21 37" fill="none" xmlns="http://www.w3.org/2000/svg">
<path fill-rule="evenodd" clip-rule="evenodd" d="M2.61248 0.43506C2.32145 0.155881 1.9338 1.65043e-06 1.53051 1.68568e-06C1.12723 1.72094e-06 0.739516 0.155881 0.448483 0.43506C0.30655 0.573745 0.193818 0.739474 0.116818 0.922365C0.0398188 1.10526 0.000118976 1.30168 0.000118993 1.50012C0.000119011 1.69856 0.0398188 1.89499 0.116818 2.07788C0.193818 2.26077 0.30655 2.42638 0.448483 2.56507L16.7295 18.6251L0.448486 34.1251C0.306553 34.2638 0.193821 34.4294 0.116821 34.6123C0.0398217 34.7952 0.000121921 34.9916 0.000121939 35.1901C0.000121956 35.3885 0.0398218 35.5849 0.116821 35.7678C0.193821 35.9507 0.306553 36.1164 0.448486 36.2551C0.737211 36.5388 1.12579 36.6976 1.53052 36.6976C1.93525 36.6976 2.32376 36.5388 2.61249 36.2551L20.8125 18.6251L2.61248 0.43506Z" fill="#F2F0F0"/>
</svg>
