<svg width="158" height="128" viewBox="0 0 158 128" fill="none" xmlns="http://www.w3.org/2000/svg">
<path d="M146.239 87.775C141.636 90.97 140.894 94.4566 140.776 95.4361C140.046 95.864 139.367 96.2443 138.748 96.5803C139.722 94.9606 140.652 93.3092 141.49 91.6198C142.899 88.7431 144.121 85.7786 145.147 82.7447C145.261 82.415 145.372 82.0822 145.48 81.7462C146.262 79.2498 147.441 76.8953 148.972 74.773C149.076 74.6303 149.178 74.4909 149.289 74.3482C162.176 67.302 156.272 52.9339 156.272 52.9339C156.466 56.1036 153.399 58.5284 150.241 64.313C147.559 69.2355 148.457 72.6841 148.784 73.6065C148.124 74.6208 147.515 75.5083 146.975 76.2469C147.188 75.3245 147.381 74.3958 147.562 73.4639C148.159 70.3312 148.53 67.1597 148.67 63.9739L148.724 62.7821C148.743 62.3859 148.756 61.9865 148.749 61.5903V59.2035C148.73 58.4079 148.68 57.6187 148.648 56.8199C148.626 56.4205 148.619 56.0243 148.584 55.6281L148.473 54.4427C148.402 53.6555 148.446 52.8622 148.603 52.0876L149.524 47.5454C158.919 36.2646 148.137 25.0693 148.137 25.0693C149.486 27.9505 147.524 31.3262 146.721 37.8621C146.036 43.4217 148.14 46.3029 148.784 47.0541C148.518 48.3727 148.245 49.5233 148 50.4615L147.896 49.7198C147.804 48.9338 147.619 48.1572 147.477 47.3774L147.251 46.2078C147.178 45.818 147.102 45.4281 147.001 45.0446C146.616 43.5041 146.267 41.9573 145.775 40.4485L145.429 39.3106L145.258 38.7432L144.258 35.9444C143.75 34.6449 143.22 33.3516 142.652 32.0774C141.623 29.794 141.017 27.3434 140.862 24.8442C140.83 24.261 140.783 23.6905 140.725 23.1326C145.782 9.35401 131.86 2.42827 131.86 2.42827C134.098 4.68824 133.387 8.52672 134.828 14.9517C136.053 20.4193 139.005 22.4258 139.856 22.9044C140.126 24.7713 140.272 26.3403 140.348 27.437C140.329 27.3958 140.307 27.3578 140.284 27.3166L139.713 26.3086C139.526 25.9599 139.307 25.6303 139.107 25.288L137.878 23.2625L136.555 21.2942C136.333 20.9772 136.117 20.6381 135.888 20.3147L135.177 19.3638C134.447 18.3527 133.676 17.3701 132.876 16.4129C131.762 15.0055 130.238 12.9706 128.915 11.503C128.286 10.8201 127.759 10.0505 127.35 9.21771C121.573 -2.98554 107.417 0.444048 107.417 0.444048C110.591 0.646907 112.616 3.98458 117.971 7.82622C122.205 10.8628 125.56 10.6789 126.782 10.4697L127.255 10.625L128.874 12.3145C131.011 14.6212 132.986 17.073 134.784 19.6523L135.463 20.6032C135.682 20.9202 135.888 21.2625 136.098 21.5921L137.367 23.5732L137.901 24.5241C136.562 23.3887 135.149 22.3426 133.673 21.3924C126.055 8.8532 111.94 15.3954 111.94 15.3954C115.114 15.0594 117.653 18.0104 123.589 20.8948C128.636 23.3481 132.048 22.2958 132.952 21.9281C134.971 23.1104 136.653 24.2673 137.621 24.9647C138.239 25.4 138.744 25.9758 139.094 26.6446L139.627 27.6938C141.058 30.4745 142.293 33.351 143.325 36.3026L144.242 39.0792L144.398 39.6434L144.715 40.7718C145.163 42.2679 145.467 43.7989 145.804 45.3203C145.896 45.7007 145.959 46.0842 146.023 46.4709V46.4899C145.116 45.0913 144.122 43.75 143.049 42.474C139.43 28.2548 124.027 30.388 124.027 30.388C127.15 30.9934 128.734 34.5593 133.549 39.0507C137.653 42.8543 141.224 42.8543 142.198 42.7751C143.303 43.9764 144.207 45.0509 144.877 45.8814C145.817 47.0262 146.4 48.4215 146.553 49.8942V49.9164L146.886 52.8198L147.001 54.5663L147.08 55.7327C147.105 56.1194 147.099 56.5093 147.112 56.8992C147.112 57.6757 147.153 58.4523 147.15 59.232L147.093 61.5617C147.093 61.9516 147.067 62.3383 147.039 62.725L146.956 63.8883C146.833 65.5682 146.65 67.2418 146.407 68.9091C146.089 67.562 145.703 66.2322 145.248 64.9248C146.953 50.3443 131.797 46.8576 131.797 46.8576C134.501 48.5375 134.704 52.4331 137.602 58.3477C140.072 63.378 143.411 64.6427 144.35 64.9089C144.712 65.8186 145.023 66.6554 145.283 67.3971C145.93 69.218 146.055 71.1828 145.645 73.0708V73.0994C144.998 76.1314 144.141 79.1149 143.081 82.0284C142.02 84.935 140.774 87.7703 139.348 90.5167C138.923 91.3123 138.478 92.1016 138.021 92.8718C138.274 91.2979 138.431 89.7102 138.491 88.1173C145.423 75.1787 132.606 66.3797 132.606 66.3797C134.511 68.9312 133.266 72.6303 133.793 79.1947C134.244 84.7796 136.888 87.1759 137.666 87.7528C137.666 87.9651 137.666 88.1775 137.666 88.3867C137.656 91.9432 136.547 95.41 134.492 98.3141L134.463 98.3585C132.663 100.876 130.689 103.265 128.556 105.509C128.017 106.058 127.509 106.638 126.944 107.161L125.274 108.761L125.23 108.723C125.738 107.821 126.198 106.928 126.611 106.045C138.037 96.8022 129.623 83.7305 129.623 83.7305C130.384 86.8146 127.804 89.7528 125.744 96.0003C123.992 101.325 125.496 104.558 125.982 105.405C125.646 106.21 125.322 106.948 125.03 107.604C124.297 109.216 123.189 110.629 121.799 111.725L121.776 111.741C119.382 113.67 116.855 115.429 114.213 117.003C112.67 117.913 111.097 118.766 109.493 119.56C110.164 118.874 110.783 118.183 111.35 117.488C122.281 112.454 118.256 100.371 118.256 100.371C118.215 103.015 115.574 104.809 112.686 109.354C110.217 113.227 110.756 116.099 110.972 116.869C110.617 117.342 110.277 117.776 109.96 118.172C108.917 119.485 107.563 120.518 106.021 121.177H105.998C103.17 122.357 100.271 123.36 97.3173 124.179H97.2856C96.8921 124.284 96.5429 124.513 96.2893 124.831C96.0356 125.15 95.8909 125.541 95.8763 125.947C95.8625 126.258 95.9234 126.568 96.054 126.85C96.1847 127.132 96.3811 127.379 96.627 127.57C96.8729 127.761 97.161 127.89 97.4672 127.947C97.7734 128.004 98.0888 127.987 98.387 127.897C101.484 126.955 104.518 125.818 107.471 124.493C110.41 123.15 113.256 121.61 115.987 119.884C117.638 118.86 119.228 117.747 120.77 116.575C122.872 114.985 125.383 114.025 128.01 113.808C141.709 119.085 148.87 105.291 148.87 105.291C146.572 107.49 142.741 106.72 136.285 108.061C130.794 109.202 128.737 112.118 128.248 112.964C126.928 113.132 125.76 113.243 124.798 113.313C125.671 112.546 126.515 111.75 127.366 110.961L129.064 109.246C129.639 108.685 130.156 108.067 130.702 107.478C132.857 105.096 134.843 102.568 136.647 99.9117L136.758 99.7468C137.63 98.4449 138.821 97.3875 140.218 96.6754L140.897 96.3236C155.58 95.7721 156.723 80.2819 156.723 80.2819C155.472 83.2106 151.647 83.9967 146.239 87.775Z" fill="#572A6B"/>
<path d="M11.3765 87.775C15.9757 90.97 16.7184 94.4566 16.8295 95.4361C17.5596 95.864 18.2388 96.2444 18.8609 96.5803C17.8865 94.9606 16.9565 93.3092 16.1154 91.6198C14.7078 88.7425 13.4864 85.7781 12.4589 82.7447C12.3446 82.4277 12.2367 82.0822 12.1415 81.7462C11.3597 79.2499 10.1808 76.8954 8.65004 74.773L8.33263 74.3482C-4.55397 67.302 1.34975 52.9339 1.34975 52.9339C1.15296 56.1036 4.20638 58.5284 7.38042 64.313C10.0593 69.2355 9.16106 72.6842 8.83413 73.6065C9.49433 74.6208 10.1037 75.5083 10.6433 76.2469C10.4317 75.3234 10.236 74.3958 10.0561 73.4639C9.45917 70.3312 9.08896 67.1597 8.9484 63.9739L8.89444 62.8074C8.87222 62.4112 8.85952 62.0118 8.86587 61.6156V59.2289C8.88492 58.4333 8.9357 57.644 8.96744 56.8453C8.98966 56.4459 8.99601 56.0497 9.03409 55.6535L9.14201 54.468C9.21427 53.681 9.1715 52.8877 9.01505 52.1129L8.10093 47.5708C-1.29423 36.2899 9.48798 25.0946 9.48798 25.0946C8.14219 27.9759 10.1037 31.3516 10.9068 37.8874C11.5892 43.4471 9.48481 46.3283 8.84048 47.0795C9.1071 48.3981 9.38324 49.5487 9.62447 50.4869L9.72921 49.7452C9.82126 48.9591 10.0085 48.1826 10.1482 47.4028L10.3735 46.2332C10.4465 45.8433 10.5227 45.4535 10.6243 45.0699C11.0083 43.5295 11.3607 41.9827 11.8526 40.4739L12.3668 38.7686L12.5668 38.2076L13.3698 35.9698C13.8777 34.6702 14.4077 33.377 14.9569 32.1028C15.9935 29.8176 16.6065 27.3637 16.7661 24.8601C16.7978 24.2768 16.8422 23.7063 16.8994 23.1484C11.8399 9.3762 25.7613 2.45045 25.7613 2.45045C23.5395 4.71043 24.2377 8.54891 22.7967 14.9738C21.5684 20.4415 18.6197 22.4479 17.7817 22.9266C17.512 24.7935 17.3659 26.3625 17.2898 27.4592L17.3533 27.3388L17.9024 26.3086C18.0896 25.9599 18.3055 25.6303 18.5054 25.288L19.7338 23.2626L21.0605 21.2942C21.2827 20.9772 21.4985 20.6381 21.7271 20.3147L22.4381 19.3638C23.1681 18.3517 23.9341 17.368 24.7361 16.4129C25.8502 15.0055 27.3737 12.9706 28.6973 11.5031C29.3269 10.8209 29.854 10.0511 30.2621 9.21771C36.0515 -2.98554 50.1982 0.444048 50.1982 0.444048C47.0242 0.646907 44.996 3.98458 39.6414 7.82623C35.4072 10.8628 32.0649 10.6821 30.8302 10.4602L30.3605 10.6155L28.7417 12.305C26.6031 14.614 24.6283 17.069 22.8316 19.6523L22.1492 20.6032C21.9302 20.9202 21.7271 21.2625 21.5144 21.5921L20.2448 23.5732L19.7116 24.5241C21.0489 23.388 22.4602 22.3419 23.9362 21.3924C31.5539 8.8532 45.672 15.3954 45.672 15.3954C42.498 15.0594 39.9588 18.0104 34.0201 20.8948C28.9766 23.3481 25.5645 22.2958 24.6599 21.9281C22.638 23.0882 20.9558 24.2451 20.0036 24.9425C19.3798 25.3757 18.8702 25.9532 18.5181 26.6256L17.9881 27.6747C16.5561 30.457 15.3205 33.3357 14.2903 36.2899L13.5571 38.5087L13.3762 39.0666L13.2207 39.6308L12.9032 40.7592C12.4589 42.2553 12.1542 43.7862 11.8146 45.3077C11.7225 45.688 11.659 46.0715 11.5955 46.4582V46.4773C12.5013 45.0831 13.4925 43.7461 14.5633 42.474C18.1817 28.2548 33.5885 30.388 33.5885 30.388C30.462 30.9934 28.8814 34.5593 24.0663 39.0507C19.9623 42.8543 16.3915 42.8543 15.4203 42.7751C14.3125 43.9764 13.4079 45.0509 12.7382 45.8814C11.7977 47.0256 11.2158 48.4214 11.0655 49.8942V49.9164L10.7322 52.8293L10.5418 55.7422C10.5164 56.1289 10.5195 56.5188 10.5068 56.9087C10.5068 57.6852 10.4656 58.4618 10.4688 59.2416L10.5259 61.5713C10.5259 61.9611 10.5513 62.3478 10.583 62.7345L10.6624 63.8978C10.7893 65.5777 10.9798 67.2513 11.2147 68.9186C11.5298 67.5712 11.9154 66.2413 12.37 64.9343C10.6687 50.3538 25.8216 46.8671 25.8216 46.8671C23.1173 48.5471 22.9173 52.4426 20.0163 58.3572C17.5278 63.3938 14.1919 64.6617 13.2492 64.9184C12.8874 65.8281 12.5795 66.6649 12.3161 67.4066C11.6688 69.2274 11.5446 71.1927 11.9574 73.0804V73.1089C12.6027 76.1413 13.4597 79.1249 14.522 82.0379C15.5899 84.9418 16.8441 87.774 18.2769 90.5167C18.7022 91.3123 19.1466 92.1016 19.6005 92.8718C19.3491 91.2977 19.1922 89.7101 19.1307 88.1173C12.1986 75.1787 25.0154 66.3797 25.0154 66.3797C23.111 68.9313 24.3584 72.6303 23.8283 79.1947C23.3776 84.7796 20.7368 87.1759 19.9591 87.7528C19.9591 87.9652 19.9591 88.1775 19.9591 88.3867C19.9721 91.9427 21.0802 95.4086 23.1332 98.3142L23.1649 98.3585C24.9624 100.866 26.9318 103.246 29.0591 105.481C29.5987 106.029 30.1097 106.609 30.6747 107.132L32.3411 108.733L32.3823 108.72C31.8745 107.818 31.4153 106.925 31.0048 106.042C19.5783 96.799 27.9958 83.7273 27.9958 83.7273C27.234 86.8114 29.8145 89.7497 31.8745 95.9971C33.6266 101.322 32.1221 104.555 31.6333 105.402C31.9697 106.207 32.2966 106.945 32.5855 107.601C33.318 109.213 34.4259 110.625 35.8166 111.722L35.8357 111.738C38.2309 113.667 40.7594 115.426 43.4026 116.999C44.9431 117.91 46.5153 118.763 48.1192 119.557C47.4527 118.87 46.8306 118.179 46.2624 117.484C35.331 112.451 39.3557 100.368 39.3557 100.368C39.3747 102.974 42.0187 104.78 44.9198 109.329C47.386 113.202 46.8464 116.074 46.6306 116.844C46.9861 117.316 47.3257 117.751 47.6431 118.147C48.684 119.458 50.0356 120.49 51.5757 121.148H51.598C54.4363 122.344 57.3474 123.359 60.3139 124.188H60.3488C60.7422 124.294 61.0914 124.522 61.3451 124.841C61.5987 125.159 61.7435 125.55 61.7581 125.957C61.7719 126.268 61.7109 126.577 61.5803 126.859C61.4497 127.142 61.2532 127.389 61.0073 127.58C60.7615 127.771 60.4733 127.9 60.1671 127.957C59.8609 128.014 59.5455 127.996 59.2474 127.906C56.1486 126.967 53.1124 125.833 50.157 124.512C47.218 123.168 44.3729 121.628 41.641 119.903C39.9937 118.879 38.4035 117.766 36.8577 116.594C34.7579 115.003 32.2475 114.043 29.6209 113.827C15.9027 119.085 8.75478 105.291 8.75478 105.291C11.0528 107.49 14.8838 106.72 21.3398 108.061C26.8341 109.202 28.8877 112.118 29.3797 112.964C30.7001 113.132 31.8681 113.243 32.8267 113.313C31.957 112.546 31.1095 111.75 30.2621 110.961L28.5735 109.246C27.999 108.685 27.4816 108.067 26.9325 107.478C24.7787 105.095 22.7923 102.567 20.9875 99.9117L20.8796 99.7468C19.9984 98.4413 18.7962 97.3837 17.3882 96.6754L16.7089 96.3236C2.03851 95.7752 0.895858 80.285 0.895858 80.285C2.14326 83.2106 5.96797 83.9967 11.3765 87.775Z" fill="#572A6B"/>
</svg>
