<svg xmlns="http://www.w3.org/2000/svg" width="50" height="50" viewBox="0 0 50 50"><path d="M0,0V50H50V0ZM18.49,19.94a3.74,3.74,0,0,1,3.21,1.51,5.11,5.11,0,0,1,3.44-1.51c3.25,0,4,2.62,4,4.21v7H25.34V24.5a1.16,1.16,0,0,0-1-1.26h-.2a2.34,2.34,0,0,0-1.59.71v7.18H18.69V24.5a1.16,1.16,0,0,0-1-1.26h-.2a2.41,2.41,0,0,0-1.82,1v6.94H11.8v-10l3.37-.91v1.15A4.48,4.48,0,0,1,18.49,19.94ZM38.24,31a9.67,9.67,0,0,1-2.93.43c-2.09,0-4-.87-4-3.72V17.21l3.84-.91v4H38v3.17H35V27c0,.87.44,1.35,1.43,1.35A5.07,5.07,0,0,0,38.24,28Z" fill="#fff"/></svg>