<svg xmlns="http://www.w3.org/2000/svg" width="50" height="184.81" viewBox="0 0 50 184.81"><path d="M31.09,124.78H21.17l-.91-3.37h1.15a4.48,4.48,0,0,1-1.5-3.33,3.7,3.7,0,0,1,1.5-3.21,5.15,5.15,0,0,1-1.5-3.45c0-3.25,2.61-4,4.2-4h6.94v3.8H24.47a1.15,1.15,0,0,0-1.27,1.23,2.3,2.3,0,0,0,.71,1.59h7.18v3.84H24.47a1.15,1.15,0,0,0-1.27,1.23,2.44,2.44,0,0,0,.95,1.83h6.94Z" fill="#572a6b"/><path d="M19.91,100.08c0-4.64,3.6-6.07,6.89-5.27v7.09c1.19-.43,1.67-1.9,1.67-3.45A9.15,9.15,0,0,0,28,95.32h2.86a12,12,0,0,1,.59,4c0,3.56-2,6.42-5.75,6.42A5.52,5.52,0,0,1,19.91,100.08Zm2.81-.12a1.82,1.82,0,0,0,1.82,1.94V98.26A1.61,1.61,0,0,0,22.72,100Z" fill="#572a6b"/><path d="M15.31,81.09H31.13v3.37H29.66a4.11,4.11,0,0,1,1.82,3.68c0,3.65-3,5.24-5.75,5.24S20,91.79,20,88.14a4.33,4.33,0,0,1,1.22-3.21h-5Zm7.77,6a2.37,2.37,0,0,0,2.58,2.34,2.34,2.34,0,0,0,2.57-2.34,2.42,2.42,0,0,0-1.35-2.18H24.39A2.46,2.46,0,0,0,23.08,87.11Z" fill="#572a6b"/><path d="M19.23,76.84A2,2,0,0,1,17.09,79a2.18,2.18,0,0,1,0-4.36A2,2,0,0,1,19.23,76.84Zm11.86,1.91H21.17l-.91-3.85H31.09Z" fill="#572a6b"/><path d="M28.67,61.58a2.06,2.06,0,0,0-.08-.44H31a5.65,5.65,0,0,1,.36,2,2.93,2.93,0,0,1-1.19,2.57,6,6,0,0,1,1.3,3.77c0,2.06-1.22,3.77-3.33,3.77-2.73,0-3.56-2.58-3.56-4.68a10.8,10.8,0,0,1,.23-2.34h-.39c-.76,0-1.35.71-1.35,2.26a10.22,10.22,0,0,0,.83,3.8H20.66A15.42,15.42,0,0,1,20,68c0-3.45,1.19-5.67,5.07-5.67h3C28.51,62.33,28.67,62,28.67,61.58ZM28.83,68a2.77,2.77,0,0,0-.56-1.78H26.81a4.64,4.64,0,0,0-.2,1.39c0,.91.31,1.7,1.19,1.7C28.35,69.27,28.83,68.76,28.83,68Z" fill="#572a6b"/><path d="M16.3,56h4V53.05h3.18V56H27c.88,0,1.35-.44,1.35-1.43A5.12,5.12,0,0,0,28,52.82h3a9.41,9.41,0,0,1,.43,2.93c0,2.1-.87,4-3.72,4H17.21Z" fill="#572a6b"/><path d="M19.91,45.6c0-3.25,1.9-6.11,5.74-6.11s5.75,2.86,5.75,6.11-1.9,6.11-5.75,6.11S19.91,48.85,19.91,45.6Zm3.41,0a2.08,2.08,0,0,0,2.37,2.14c1.23,0,2.38-.56,2.38-2.14s-1.15-2.14-2.38-2.14A2.09,2.09,0,0,0,23.32,45.6Z" fill="#572a6b"/><path d="M15.31,26H31.13v3.37H29.66a4.14,4.14,0,0,1,1.82,3.69c0,3.65-3,5.23-5.75,5.23S20,36.72,20,33.07a4.3,4.3,0,0,1,1.22-3.21h-5Zm7.77,6a2.37,2.37,0,0,0,2.58,2.34A2.35,2.35,0,0,0,28.23,32a2.42,2.42,0,0,0-1.35-2.18H24.39A2.46,2.46,0,0,0,23.08,32Z" fill="#572a6b"/><path d="M28.67,12.69a2.06,2.06,0,0,0-.08-.44H31a5.64,5.64,0,0,1,.36,1.94,3,3,0,0,1-1.19,2.58,6,6,0,0,1,1.3,3.77c0,2.06-1.22,3.77-3.33,3.77-2.73,0-3.56-2.58-3.56-4.68a10.74,10.74,0,0,1,.23-2.34h-.39c-.76,0-1.35.71-1.35,2.26a10.22,10.22,0,0,0,.83,3.8H20.66a15.42,15.42,0,0,1-.71-4.2c0-3.45,1.19-5.67,5.07-5.67h3A.69.69,0,0,0,28.67,12.69Zm.16,6.38a2.77,2.77,0,0,0-.56-1.78H26.81a4.59,4.59,0,0,0-.2,1.39c0,.91.31,1.7,1.19,1.7C28.35,20.38,28.83,19.87,28.83,19.07Z" fill="#572a6b"/><path d="M20.26,4V0l12,4.56c3.25,1.23,4.12,3.13,4.12,5a8.23,8.23,0,0,1-.28,2H32.91a5.92,5.92,0,0,0,.2-1.47A2.48,2.48,0,0,0,31.4,7.77L20.3,12.89V8.84l6.47-2.66Z" fill="#572a6b"/><path d="M9.59,139.41v40h30v-40Z" fill="#fff"/><path d="M0,184.81H50V134.73H0Zm31.13-29.22v3.85H24.5a1.15,1.15,0,0,0-1.26,1.23,2.28,2.28,0,0,0,.71,1.58h7.18v3.85H24.5a1.15,1.15,0,0,0-1.26,1.23,2.42,2.42,0,0,0,1,1.82h6.94V173H21.21l-.91-3.37h1.15a4.52,4.52,0,0,1-1.51-3.33,3.69,3.69,0,0,1,1.51-3.21,5.2,5.2,0,0,1-1.51-3.45c0-3.26,2.62-4,4.21-4h7ZM31,146.51a9.73,9.73,0,0,1,.43,2.94c0,2.1-.87,4-3.72,4H17.21l-.91-3.85h4v-2.93h3.17v3H27c.87,0,1.35-.43,1.35-1.42a5.18,5.18,0,0,0-.28-1.75Z" fill="#572a6b"/></svg>