<svg xmlns="http://www.w3.org/2000/svg" width="50" height="184.82" viewBox="0 0 50 184.82"><path d="M24.47,117.88h6.62V114H23.91a2.34,2.34,0,0,1-.71-1.59,1.16,1.16,0,0,1,1.27-1.23h6.58v-3.8H24.11c-1.58,0-4.2.75-4.2,4a5.11,5.11,0,0,0,1.51,3.45,3.68,3.68,0,0,0-1.51,3.21,4.44,4.44,0,0,0,1.51,3.33H20.27l.91,3.37h9.91v-3.84H24.15a2.48,2.48,0,0,1-.95-1.83A1.16,1.16,0,0,1,24.47,117.88Z" fill="#fff"/><path d="M30.81,95.32H28a9.26,9.26,0,0,1,.51,3.14c0,1.54-.47,3-1.66,3.45v-7.1c-3.29-.79-6.9.63-6.9,5.27a5.52,5.52,0,0,0,5.75,5.67c3.73,0,5.75-2.85,5.75-6.42A12,12,0,0,0,30.81,95.32Zm-6.26,6.59a1.84,1.84,0,0,1-1.83-2,1.62,1.62,0,0,1,1.83-1.7Z" fill="#fff"/><path d="M29.66,84.46h1.47V81.09H15.31l.91,3.85h5A4.26,4.26,0,0,0,20,88.15c0,3.65,2.93,5.23,5.75,5.23s5.75-1.58,5.75-5.23A4.13,4.13,0,0,0,29.66,84.46Zm-4,5a2.37,2.37,0,0,1-2.58-2.34,2.47,2.47,0,0,1,1.31-2.18h2.5a2.43,2.43,0,0,1,1.35,2.18A2.35,2.35,0,0,1,25.66,89.46Z" fill="#fff"/><polygon points="21.18 78.75 31.09 78.75 31.09 74.9 20.27 74.9 21.18 78.75" fill="#fff"/><path d="M17.09,79a2,2,0,0,0,2.15-2.18,2,2,0,0,0-2.15-2.18,2.18,2.18,0,0,0,0,4.36Z" fill="#fff"/><path d="M23.87,72.25A10.27,10.27,0,0,1,23,68.44c0-1.54.6-2.26,1.35-2.26h.4a10.85,10.85,0,0,0-.24,2.34c0,2.1.83,4.68,3.57,4.68,2.1,0,3.33-1.7,3.33-3.77a5.94,5.94,0,0,0-1.31-3.76,3,3,0,0,0,1.19-2.58A5.59,5.59,0,0,0,31,61.15H28.59a2,2,0,0,1,.08.43c0,.4-.16.76-.63.8H25c-3.88,0-5.07,2.22-5.07,5.67a15.89,15.89,0,0,0,.71,4.2Zm2.94-6.07h1.47A2.84,2.84,0,0,1,28.83,68c0,.79-.47,1.31-1,1.31-.87,0-1.19-.8-1.19-1.71A4.64,4.64,0,0,1,26.81,66.18Z" fill="#fff"/><path d="M17.21,59.8H27.72c2.86,0,3.73-1.95,3.73-4A9.4,9.4,0,0,0,31,52.82H28a5.12,5.12,0,0,1,.28,1.74c0,1-.48,1.43-1.35,1.43H23.44V53.05H20.27V56h-4Z" fill="#fff"/><path d="M25.66,51.71c3.84,0,5.75-2.86,5.75-6.11s-1.91-6.1-5.75-6.1-5.75,2.85-5.75,6.1S21.85,51.71,25.66,51.71Zm0-8.25c1.23,0,2.38.56,2.38,2.14s-1.15,2.14-2.38,2.14-2.38-.55-2.38-2.14A2.1,2.1,0,0,1,25.7,43.46Z" fill="#fff"/><path d="M21.22,29.86A4.3,4.3,0,0,0,20,33.07c0,3.65,2.93,5.24,5.75,5.24s5.75-1.59,5.75-5.24a4.09,4.09,0,0,0-1.83-3.68h1.47V26H15.31l.91,3.84Zm3.17,0h2.5A2.44,2.44,0,0,1,28.24,32a2.35,2.35,0,0,1-2.58,2.34A2.37,2.37,0,0,1,23.08,32,2.48,2.48,0,0,1,24.39,29.86Z" fill="#fff"/><path d="M23.87,23.36A10.27,10.27,0,0,1,23,19.55c0-1.54.6-2.26,1.35-2.26h.4a10.85,10.85,0,0,0-.24,2.34c0,2.1.83,4.68,3.57,4.68,2.1,0,3.33-1.71,3.33-3.77a5.94,5.94,0,0,0-1.31-3.76,3,3,0,0,0,1.19-2.58A5.59,5.59,0,0,0,31,12.26H28.59a1.88,1.88,0,0,1,.08.43c0,.4-.16.76-.63.8H25c-3.88,0-5.07,2.22-5.07,5.67a15.89,15.89,0,0,0,.71,4.2Zm2.94-6.07h1.47a2.84,2.84,0,0,1,.55,1.79c0,.79-.47,1.3-1,1.3-.87,0-1.19-.79-1.19-1.7A4.64,4.64,0,0,1,26.81,17.29Z" fill="#fff"/><path d="M20.31,8.84v4.05l11.1-5.12A2.47,2.47,0,0,1,33.11,10a5.92,5.92,0,0,1-.2,1.47h3.18a8.22,8.22,0,0,0,.27-2c0-1.83-.87-3.73-4.12-5L20.27,0V4l6.5,2.21Z" fill="#fff"/><path d="M0,134.74v50.08H50V134.74Zm20,24.9c0-3.25,2.61-4,4.2-4h7v3.81H24.51a1.16,1.16,0,0,0-1.27,1.23,2.34,2.34,0,0,0,.71,1.59h7.18v3.84H24.51a1.16,1.16,0,0,0-1.27,1.23,2.48,2.48,0,0,0,1,1.83h6.94V173H21.22l-.92-3.37h1.15A4.48,4.48,0,0,1,20,166.3a3.69,3.69,0,0,1,1.5-3.21A5.15,5.15,0,0,1,20,159.64Zm7.77-6.15H17.21l-.91-3.84h4v-2.94h3.17v3H27c.87,0,1.34-.44,1.34-1.43a5.43,5.43,0,0,0-.27-1.75h3a9.51,9.51,0,0,1,.44,2.94C31.45,151.55,30.57,153.49,27.72,153.49Z" fill="#fff"/></svg>