<svg width="17" height="28" viewBox="0 0 17 28" fill="none" xmlns="http://www.w3.org/2000/svg">
<path d="M8.5 5.24561C8.72378 5.24561 8.93839 5.3345 9.09662 5.49273C9.25486 5.65097 9.34375 5.86558 9.34375 6.08936V9.46436C9.34375 9.68813 9.25486 9.90274 9.09662 10.061C8.93839 10.2192 8.72378 10.3081 8.5 10.3081C8.27622 10.3081 8.06161 10.2192 7.90338 10.061C7.74514 9.90274 7.65625 9.68813 7.65625 9.46436V6.08936C7.65625 5.86558 7.74514 5.65097 7.90338 5.49273C8.06161 5.3345 8.27622 5.24561 8.5 5.24561ZM15.25 18.7456C15.25 20.5358 14.5388 22.2527 13.273 23.5186C12.0071 24.7844 10.2902 25.4956 8.5 25.4956C6.70979 25.4956 4.9929 24.7844 3.72703 23.5186C2.46116 22.2527 1.75 20.5358 1.75 18.7456V8.62061C1.75 6.83039 2.46116 5.11351 3.72703 3.84763C4.9929 2.58176 6.70979 1.87061 8.5 1.87061C10.2902 1.87061 12.0071 2.58176 13.273 3.84763C14.5388 5.11351 15.25 6.83039 15.25 8.62061V18.7456ZM8.5 0.183105C6.26224 0.183105 4.11612 1.07205 2.53379 2.65439C0.951448 4.23673 0.0625 6.38284 0.0625 8.62061V18.7456C0.0625 20.9834 0.951448 23.1295 2.53379 24.7118C4.11612 26.2942 6.26224 27.1831 8.5 27.1831C10.7378 27.1831 12.8839 26.2942 14.4662 24.7118C16.0486 23.1295 16.9375 20.9834 16.9375 18.7456V8.62061C16.9375 6.38284 16.0486 4.23673 14.4662 2.65439C12.8839 1.07205 10.7378 0.183105 8.5 0.183105V0.183105Z" fill="white"/>
</svg>
